<svg width="985" height="767" viewBox="0 0 985 767" fill="none" xmlns="http://www.w3.org/2000/svg">
<g clip-path="url(#clip0_0_1)">
<path d="M49.8486 334.5H35.8486C31.682 335.5 23.2486 339.9 22.8486 349.5C22.8486 353.9 22.8486 360 22.8486 362.5C22.8486 367.5 30.8486 373 34.8486 371M942.349 334C948.849 334.833 960.949 337.3 961.349 346.5C961.749 355.7 961.515 359.667 961.349 360.5C958.682 364.167 953.749 372.4 951.349 370" stroke="#2C2C2C" stroke-width="3"/>
<rect x="285" y="212" width="414" height="458" fill="#764848"/>
<path d="M256.349 0.5L260.849 44.5L271.849 205M727.849 0.5L723.849 44.5L712.349 207" stroke="#E3E3E3" stroke-width="5"/>
<g filter="url(#filter0_d_0_1)">
<path d="M254.5 25L256 17.5L258 36.5L259.5 53L261 72L262 86L263 107L264.5 125.5L265.5 141L266.5 157L267.5 173L270 202.5H257L255 170.5L253.5 142.5L252.5 127.5L252 118V107V65.5L253 53L254.5 25Z" fill="#E3E3E3"/>
</g>
<g filter="url(#filter1_d_0_1)">
<path d="M729.5 25L728.5 19L726 38L724.5 54.5L723 73.5L722 87.5L721 108.5L719.5 127L718.5 142.5L717.5 158.5L716.5 174.5L714 204H727L729 172L730.5 144L731.5 129L732 119.5V108.5V67L731 54.5L729.5 25Z" fill="#E3E3E3"/>
</g>
<path d="M180.349 119L184.849 210H146.849C115.849 210 89.182 240.667 79.3486 261L30.8486 379.5C23.5153 460.333 8.44863 626.3 6.84863 643.5C0.448628 666.7 12.182 673.5 18.8486 674H568.349H751.849H823.849C863.849 673.833 946.649 673.6 957.849 674C969.049 674.4 977.182 665.167 979.849 660.5L957.849 376.5L898.849 249L892.849 238.5L882.349 227L872.849 220.5L862.349 214L842.349 210H800.849L803.849 119V65.5L800.849 24.5L795.349 5H731.349L734.349 24.5L736.349 65.5V121.5L731.349 207.5H252.849L247.349 119V107.5V65.5L249.849 24.5L252.849 5H188.849L184.849 24.5L180.349 65.5V119Z" stroke="white" stroke-width="10"/>
<path d="M28.8486 676.5L35.8486 696L46.8486 717.5L64.3486 735C64.3486 735 76.5172 744.807 85.8486 747.5C104.849 752.983 357.849 764 357.849 764L454.349 765.5H516.349L578.349 764L652.849 760.5L731.849 756L802.849 752L870.849 749L898.349 745.5L910.349 740.5L924.849 731L939.849 713L948.849 696L955.849 678" stroke="#2C2C2C" stroke-width="2"/>
<path d="M332.349 293.5V497.5" stroke="white" stroke-width="42"/>
<path d="M653.349 496.5V293.5" stroke="white" stroke-width="42"/>
<path d="M266.349 206.5L266.35 669.5" stroke="white" stroke-width="37"/>
<path d="M717.349 207.5V669.5" stroke="white" stroke-width="37"/>
<path d="M220.349 670L189.349 215H136.849L112.349 222L82.3486 255.5L33.8486 379.5L8.34863 670H220.349Z" fill="#4F3A3B"/>
<path d="M764 670L795 215H847.5L872 222L902 255.5L953.5 378.5L976 670H764Z" fill="#4F3A3B"/>
<path d="M220 670L189.5 215.5L182.5 67.5L191.5 10H248L243 70.5V118L244.5 135L248 203.5V215.5V669L220 670Z" fill="white"/>
<path d="M764.069 670L795.733 215.5L803 67.5L793.656 10H735L740.191 70.5V118L738.634 135L735 203.5V215.5V669L764.069 670Z" fill="white"/>
</g>
<defs>
<filter id="filter0_d_0_1" x="248" y="17.5" width="26" height="193" filterUnits="userSpaceOnUse" color-interpolation-filters="sRGB">
<feFlood flood-opacity="0" result="BackgroundImageFix"/>
<feColorMatrix in="SourceAlpha" type="matrix" values="0 0 0 0 0 0 0 0 0 0 0 0 0 0 0 0 0 0 127 0" result="hardAlpha"/>
<feOffset dy="4"/>
<feGaussianBlur stdDeviation="2"/>
<feComposite in2="hardAlpha" operator="out"/>
<feColorMatrix type="matrix" values="0 0 0 0 0 0 0 0 0 0 0 0 0 0 0 0 0 0 0.25 0"/>
<feBlend mode="normal" in2="BackgroundImageFix" result="effect1_dropShadow_0_1"/>
<feBlend mode="normal" in="SourceGraphic" in2="effect1_dropShadow_0_1" result="shape"/>
</filter>
<filter id="filter1_d_0_1" x="710" y="19" width="26" height="193" filterUnits="userSpaceOnUse" color-interpolation-filters="sRGB">
<feFlood flood-opacity="0" result="BackgroundImageFix"/>
<feColorMatrix in="SourceAlpha" type="matrix" values="0 0 0 0 0 0 0 0 0 0 0 0 0 0 0 0 0 0 127 0" result="hardAlpha"/>
<feOffset dy="4"/>
<feGaussianBlur stdDeviation="2"/>
<feComposite in2="hardAlpha" operator="out"/>
<feColorMatrix type="matrix" values="0 0 0 0 0 0 0 0 0 0 0 0 0 0 0 0 0 0 0.25 0"/>
<feBlend mode="normal" in2="BackgroundImageFix" result="effect1_dropShadow_0_1"/>
<feBlend mode="normal" in="SourceGraphic" in2="effect1_dropShadow_0_1" result="shape"/>
</filter>
<clipPath id="clip0_0_1">
<rect width="985" height="767" fill="white"/>
</clipPath>
</defs>
</svg>
